Coordinates
version=1
nRows=8
nColumns=40
inDegrees=yes

Units are S.I. units (second, meters, Newtons, ...)
Angles are in degrees.

endheader
time	pelvis_tilt	pelvis_list	pelvis_rotation	pelvis_tx	pelvis_ty	pelvis_tz	hip_flexion_r	hip_adduction_r	hip_rotation_r	knee_angle_r	knee_angle_r_beta	ankle_angle_r	subtalar_angle_r	mtp_angle_r	hip_flexion_l	hip_adduction_l	hip_rotation_l	knee_angle_l	knee_angle_l_beta	ankle_angle_l	subtalar_angle_l	mtp_angle_l	lumbar_extension	lumbar_bending	lumbar_rotation	arm_flex_r	arm_add_r	arm_rot_r	elbow_flex_r	pro_sup_r	wrist_flex_r	wrist_dev_r	arm_flex_l	arm_add_l	arm_rot_l	elbow_flex_l	pro_sup_l	wrist_flex_l	wrist_dev_l
     42.13750000	     -2.16975209	     -2.68987907	     -1.21554941	      0.88095727	      0.93178587	      0.45410026	     31.90201320	     -6.34709444	     -4.55505766	     71.35115766	     71.35115766	     -1.95894875	    -19.22238423	     12.92689193	      9.35385620	     -2.91997369	     -5.89771747	     21.18222044	     21.18222044	     15.74178700	    -12.11206204	      2.30302187	     -9.88061754	      5.35328616	      1.05997183	    -12.44523381	    -12.43846095	    -16.82053754	     20.70171753	     47.37319378	      0.00000000	      0.00000000	     17.28371057	    -17.61817442	    -11.02851409	     69.27320521	     47.34378008	      0.00000000	      0.00000000
     42.15071429	     -2.28456017	     -2.84775141	     -1.47430784	      0.87997160	      0.93231481	      0.45473080	     32.80739515	     -6.10678265	     -5.22214999	     69.68101460	     69.68101460	     -0.77022856	    -19.25871538	     12.89543497	      8.70584110	     -3.09753609	     -6.10465626	     20.55169807	     20.55169807	     15.85473556	    -11.95936801	      2.37827155	     -9.94367596	      5.47496596	      0.98716035	    -12.76787228	    -12.38845735	    -16.87662486	     20.61693363	     47.37863147	      0.00000000	      0.00000000	     18.03168305	    -17.83990856	    -11.25041577	     69.86425047	     47.37610653	      0.00000000	      0.00000000
     42.16392857	     -2.39960892	     -3.04392312	     -1.74169116	      0.87895980	      0.93280009	      0.45552315	     33.49344047	     -5.76293846	     -5.89202138	     67.44526251	     67.44526251	      0.39983162	    -19.25729251	     12.92798110	      8.03379942	     -3.31904580	     -6.32293889	     19.87800588	     19.87800588	     15.96429926	    -11.80235329	      2.44005779	    -10.05397418	      5.64923419	      1.02098756	    -12.98425406	    -12.33006334	    -16.94701736	     20.62242018	     47.38217095	      0.00000000	      0.00000000	     18.72502932	    -17.95171433	    -11.51403114	     70.63204874	     47.41388064	      0.00000000	      0.00000000
     42.17714286	     -2.54699267	     -3.27328390	     -1.99135044	      0.87791927	      0.93315811	      0.45637880	     33.98414815	     -5.32346997	     -6.52541001	     64.66954365	     64.66954365	      1.48901866	    -19.21373484	     12.92434982	      7.42497468	     -3.58451873	     -6.52614360	     19.25239799	     19.25239799	     16.04235994	    -11.64262075	      2.47668973	    -10.14879151	      5.86780945	      1.06922083	    -13.06076916	    -12.26386349	    -17.02083894	     20.70979246	     47.38351741	      0.00000000	      0.00000000	     19.33523531	    -17.97890013	    -11.77222273	     71.43775308	     47.45078967	      0.00000000	      0.00000000
     42.19035714	     -2.74999818	     -3.46694323	     -2.23732045	      0.87682999	      0.93324203	      0.45734877	     34.33333130	     -4.85894229	     -7.07624661	     61.42684961	     61.42684961	      2.45420418	    -19.11730541	     12.85316212	      6.93677785	     -3.81801439	     -6.70679954	     18.73820239	     18.73820239	     16.20488851	    -11.51854142	      2.43491598	    -10.18446251	      6.03675341	      1.15783831	    -12.95053066	    -12.18795334	    -17.08042485	     20.86893281	     47.38199157	      0.00000000	      0.00000000	     19.87323773	    -17.99454288	    -11.99720086	     72.16854823	     47.48256912	      0.00000000	      0.00000000
     42.20357143	     -2.79872207	     -3.66719165	     -2.47946067	      0.87595057	      0.93339279	      0.45833341	     34.15998151	     -4.37841333	     -7.61060378	     57.55090045	     57.55090045	      2.64858193	    -19.00099878	     10.61312859	      6.24252265	     -4.09093734	     -7.11210839	     18.17472101	     18.17472101	     16.15734577	    -11.18131958	      1.74034520	    -10.47444246	      6.21919610	      0.81648722	    -12.58292442	    -12.15014018	    -17.86041054	     21.40198045	     47.42798158	      0.00000000	      0.00000000	     19.48128491	    -17.79561262	    -13.47630224	     74.57635438	     47.65185454	      0.00000000	      0.00000000
     42.21678571	     -3.01647419	     -3.89239753	     -2.65479578	      0.87496463	      0.93317438	      0.45939859	     34.02216573	     -3.76414681	     -7.99199430	     53.41560203	     53.41560203	      3.29473750	    -18.71515741	     10.48905217	      5.84020488	     -4.36455861	     -7.22373974	     17.79339514	     17.79339514	     16.29525821	    -11.17062248	      1.70561092	    -10.48583468	      6.48778709	      0.89046681	    -12.20649718	    -12.09059153	    -17.89218020	     21.45515079	     47.43074669	      0.00000000	      0.00000000	     19.95699497	    -17.70059377	    -13.45979749	     74.95757494	     47.66408459	      0.00000000	      0.00000000
     42.23000000	     -3.11827144	     -4.10653409	     -2.84084633	      0.87417764	      0.93289038	      0.46064385	     33.48124859	     -3.10254041	     -8.25935942	     48.88569381	     48.88569381	      3.50153056	    -18.26077374	      9.37587676	      5.29080153	     -4.66161726	     -7.50037974	     17.41428007	     17.41428007	     16.49135343	    -10.90644190	      1.44698476	    -10.67941884	      6.68761301	      1.05600596	    -11.68544338	    -12.01798632	    -18.00613376	     21.49907742	     47.44156240	      0.00000000	      0.00000000	     20.32924069	    -17.51782893	    -13.49268689	     75.58304085	     47.68730566	      0.00000000	      0.00000000
